<?xml version="1.0" encoding="utf-8"?>
<!-- Generator: Adobe Illustrator 18.0.0, SVG Export Plug-In . SVG Version: 6.00 Build 0)  -->
<!DOCTYPE svg PUBLIC "-//W3C//DTD SVG 1.1//EN" "http://www.w3.org/Graphics/SVG/1.1/DTD/svg11.dtd">
<svg version="1.1" id="Layer_1" xmlns="http://www.w3.org/2000/svg" xmlns:xlink="http://www.w3.org/1999/xlink" x="0px" y="0px"
	 width="56.5px" height="177px" viewBox="0 0 56.5 177" enable-background="new 0 0 56.5 177" xml:space="preserve">
<path fill="#C4CFEC" d="M5.1,67.3c-0.4-0.6,0.4-2.1,0.4-2.7c0-0.3,1.2-2.7,1.5-4c1.7-6.6,5.2-13.2,7.2-19.9c0.1,0,0.2,0,0.2-0.1
	c6.5-1.8,12-0.3,27.7,0h1.2c1.9,6.6,4.4,13.2,6.2,19.9c0.2,1.3,1.5,3.7,1.5,4c0,0.6,0.9,1.8,0.4,2.4l-0.1,0.3
	c0.9,1.6,0.2,3.5,0.6,5.2v0.4H4.5v-0.4c0.4-1.6-0.3-3.2,0.6-4.9C5.1,67.5,5.1,67.3,5.1,67.3z"/>
<path fill="#C4CFEC" d="M53.8,163.2v2.4c0,2.2-1,6.7-3.5,7.8c-3.5,1.7-7.1,1.9-10.6,2.3c-0.3,0-1.2,0.1-2.5,0.1h-9.4
	c-1.9,0-3.6,0-5.1-0.1h-1.4c-0.9,0-1.7,0-2.5-0.1H18c-1.2,0-1.9-0.1-2.2-0.1c-3.4-0.5-7.1-0.8-10.5-2.5c-2.5-1.2-3.4-5.7-3.4-7.9
	v-2.4l0.4-3.5c0.6-4.6,3.2-9.4,3.7-14.1c0.1-1,0.3-2.2,0.5-3.2l0.1-9.6c-0.1-0.9-0.1-1.7-0.1-2.3s-0.1-1.2-0.1-1.6v-0.1
	c0-1.2-0.1-2-0.1-2.1c0-0.2-0.7-6-1-8.9c-0.5-4.1-1.4-10.6-2.1-14.8l50.4,0.5c-0.7,4.2-1.8,10.7-2.4,14.7c-0.4,2.9-1.2,8.7-1.2,8.9
	c0,0.2,0,0.9-0.1,2.1v0.1c0,0.5-0.1,1-0.1,1.6c0,0.5-0.1,1.2-0.1,2v0.2l-0.1,9.7c0.2,1,0.3,2.2,0.4,3.2c0.4,4.6,2.9,9.5,3.4,14.1
	L53.8,163.2L53.8,163.2z"/>
<path fill="#009739" d="M18.2,22h21v-6l1-3l-1-3l-1-3l1-2V2l-2-1h-18l-2,2v2l1,2l-1,2v2l-1,2l1,2v2L18.2,22z"/>
<path fill="#FFFFFF" d="M52.3,71.4c0.5-0.8,0.5-1.5,0.5-2.1c0-0.4-0.2-2.8-0.5-4.2c-1-3.8-2.4-7.6-3.7-11.2c-0.9-2.6-1.9-5.3-2.7-8
	c-1.3-3.8-3.1-9.5-4.4-14.4v-0.1c-0.3-0.8-0.5-1.7-0.6-2.6L40.6,27l-0.3-3.3l-0.1-8.1c0.2-0.3,0.3-0.5,0.5-0.7
	c0.4-0.5,0.8-1.2,0.8-2.3s-0.7-2.7-1.4-4.2C39.8,8,39.4,7.1,39.4,7c0-0.4,0.1-0.5,0.4-0.9c0.4-0.4,0.9-1,0.9-2.1
	c0-3.4-3-3.7-5.3-3.9L34.2,0h-12c-0.4,0-0.8,0.1-1.1,0.1c-2.4,0.2-5.3,0.5-5.3,3.9c0,1.1,0.5,1.7,0.9,2.1C16.9,6.4,17,6.6,17,6.9
	c0,0.2-0.4,1.1-0.7,1.7c-0.6,1.4-1.4,3-1.4,4.2c0,1.1,0.5,1.7,0.8,2.3c0.2,0.2,0.3,0.4,0.5,0.7l-0.1,8c-0.1,1.2-0.2,2.3-0.3,3.4
	L15.5,29c-0.1,0.9-0.3,1.8-0.6,2.6v0.1c-1.3,4.9-3.1,10.5-4.4,14.4c-0.8,2.7-1.8,5.4-2.7,8c-1.3,3.7-2.6,7.5-3.7,11.3
	c-0.2,1.3-0.5,3.6-0.5,4.1c0,0.6,0,1.3,0.5,2.1c-0.3,0.5-0.5,0.9-0.7,1.4h2.2c0.2-0.5,0.4-0.7,0.6-1c0.3-0.4,0.3-1-0.1-1.4
	c-0.5-0.5-0.5-0.6-0.5-1.3c0-0.2,0.1-1,0.2-1.9c0-0.4,0.1-0.8,0.2-1.2v-0.5c1-3.7,2.4-7.5,3.7-11.1c0.9-2.6,1.9-5.4,2.8-8.1
	c0.6-1.7,1.2-3.8,1.9-6c0.9-2.8,1.7-5.7,2.5-8.5c0.4-1,0.5-2,0.7-3c0.1-0.6,0.2-1.1,0.3-1.6v-0.1c0.1-1.1,0.2-2.3,0.4-3.6l0.1-8.3
	c0-0.2,0-0.3-0.1-0.5c-0.2-0.5-0.5-0.9-0.7-1.2c-0.3-0.5-0.5-0.7-0.5-1.1c0-0.7,0.7-2.3,1.2-3.3C18.8,8.1,19,7.5,19,7
	c0-1.2-0.6-1.8-0.9-2.2c-0.3-0.3-0.4-0.4-0.4-0.7c0-1.4,0.7-1.7,3.5-1.9C21.6,2.1,22,2,22.4,2h11.7c0.4,0,0.8,0.1,1.1,0.1
	C38,2.4,38.7,2.6,38.7,4c0,0.3-0.1,0.4-0.4,0.7c-0.4,0.4-0.9,1-0.9,2.2c0,0.5,0.3,1.1,0.8,2.4c0.5,1.1,1.2,2.7,1.2,3.3
	c0,0.4-0.1,0.6-0.5,1.1c-0.2,0.3-0.5,0.7-0.7,1.2c-0.1,0.1-0.1,0.3-0.1,0.5l0.1,8.4c0.1,1.2,0.2,2.4,0.4,3.5v0.1l0.3,1.6
	c0.1,1,0.3,2,0.7,3c0.7,2.8,1.6,5.7,2.5,8.5c0.7,2.2,1.4,4.2,1.9,5.9c0.9,2.7,1.8,5.4,2.8,8.1c1.3,3.7,2.6,7.4,3.6,11l0.1,0.6
	l0.2,1.2c0.1,0.9,0.2,1.7,0.2,1.9c0,0.7,0,0.9-0.5,1.3c-0.4,0.4-0.4,1-0.1,1.4c0.2,0.3,0.4,0.5,0.5,0.8H53
	C53,72.7,52.3,71.4,52.3,71.4z M55.2,163.8l-0.4-3.3c-0.3-2.2-1.1-4.4-1.8-6.6c-0.8-2.2-1.5-4.5-1.8-6.6v-0.2
	c-0.1-0.9-0.2-1.9-0.4-2.8v-8.9l0.4-5.8c0-0.4,0.6-4.5,1.1-8.3c0.6-4.1,1.7-10.7,2.3-14.6c0.3-1.7,0.4-2.4,0.5-2.8h-2
	c-0.1,0.5-0.2,1.5-0.4,2.5c-0.7,4-1.8,10.6-2.4,14.7c-0.7,5.1-0.9,7.1-1,7.9v0.6c0,0.1,0,0.5-0.1,1.1c0,0.5-0.1,1.2-0.1,2v0.3
	c-0.1,0.7-0.1,1.5-0.2,2.4v9.3c0.2,0.8,0.3,1.8,0.4,2.7v0.2c0.2,2.4,1.1,4.7,1.8,7c0.7,2.1,1.4,4.2,1.7,6.2l0.3,3.2v2.2
	c0,2.1-1,5.7-2.9,6.5c-2.8,1.3-5.8,1.7-8.7,2l-1.6,0.2c-0.2,0-0.8,0.1-1.9,0.1h-0.9c-2,0-5.1,0.1-9.1,0.1H17.7c-0.9,0-1.5,0-1.7-0.1
	l-1.6-0.2c-2.9-0.3-5.9-0.7-8.7-2c-1.8-0.8-2.8-4.3-2.8-6.5V164l0.3-3.2c0.3-2,1-4.1,1.7-6.2c0.8-2.3,1.6-4.7,1.8-7v-0.3
	c0.1-0.9,0.2-1.8,0.4-2.7v-9.4c-0.1-0.8-0.1-1.6-0.2-2.3c-0.1-0.9-0.1-1.7-0.1-2.2c0-0.6-0.1-1-0.1-1.1V129c-0.1-0.8-0.3-2.8-1-7.9
	C5.1,117,4,110.4,3.3,106.4c-0.2-1-0.3-2-0.4-2.5h-2c0.1,0.4,0.2,1.1,0.5,2.8c0.7,3.9,1.8,10.5,2.3,14.6c0.6,4.7,1,8,1.1,8.2
	c0,0.4,0.1,2.7,0.4,5.8v9c-0.2,0.9-0.3,1.9-0.4,2.8v0.3c-0.2,2.1-1,4.4-1.8,6.6c-0.7,2.2-1.5,4.4-1.8,6.6l-0.4,3.3v2.4
	c0,1.7,0.7,6.9,4,8.3c3.1,1.5,6.2,1.8,9.3,2.2l1.5,0.2c1.1,0.2,10.3,0.2,12.1,0.2s11,0,12.1-0.2c0.5-0.1,1-0.1,1.6-0.2
	c3.1-0.4,6.2-0.7,9.3-2.2c3.3-1.4,4-6.6,4-8.3V164C55.2,163.9,55.2,163.8,55.2,163.8z"/>
<path fill="#3657A4" d="M2.3,71.1c0,0-3.3,11.7-2,33c0,0,29.3,8.4,56,0c0,0,1-24.8-2-33C54.3,71.1,30.5,75.2,2.3,71.1z"/>
<path fill="#FFFFFF" d="M28.1,84.5V84c-2.3,0.3-3.7,2.2-3.7,4.1c0,1.8,1.1,3.7,1.6,5.5v1.2c-0.1,0.7-0.7,1.7-1.5,2.2H25
	c0.3,0,1.6-1.3,1.7-1.4c0.4-0.4,0.6-1.1,0.7-1.5c0-0.3,0.1-0.6,0.1-0.7c0-1.8-1.7-4.6-1.7-6.1C25.8,86.1,26.7,85,28.1,84.5z
	 M10.9,85.4H8.3v10.5h2.1c2.4,0,5.2-2.2,5.2-5.3C15.6,88.2,13.9,85.9,10.9,85.4z M13.2,93c-0.2,0.8-1.6,2.2-2.5,2.2h-0.5v-9.1h0.6
	c2.3,0.6,2.9,3,2.9,4.5C13.7,91.3,13.5,92.2,13.2,93z M35.1,93.2c0.7,0,1.7-0.4,1.9-1.2c-0.6,0.6-0.9,0.5-1.4,0.5
	c-0.3,0-0.8,0.1-0.9-0.2c-0.8-2-1.4-4.3-2.2-6.4c0,0.1-0.1,0.1-1.8,0.1l0.2,0.7l-2.5,8.5h0.8c0.8-2.2,0.2-2.4,1.9-2.4
	c0.2,0,1.4-0.2,1.9,0.2c0.6,0.5,0.6,1.5,0.8,2.2h1.9L35.1,93.2C35.1,93.3,35.1,93.2,35.1,93.2z M31.7,91.9c-0.5,0-1.2,0.2-1.6,0.4
	l1.2-4.2l1.4,3.8C32.4,92,31.9,91.9,31.7,91.9z M24.6,92.1c-0.7,0.5-1,0.4-1.4,0.4c-0.1,0-0.6,0-0.8-0.1L20.3,86v0.1h-2
	c0,0.2,0.1,0.5,0.2,0.7l-2.6,8.5h0.8c0.8-2.1,0.2-2.4,1.9-2.4c0.2,0,1.3,0.1,1.9,0.2c0.3,0.8,0.6,1.5,0.8,2.2h1.9l-0.6-1.9l0.1-0.1
	C23.3,93.2,24.4,92.9,24.6,92.1z M17.9,92.3l1.3-4.1l1.2,3.8C19.6,91.9,18.7,91.9,17.9,92.3z M43.2,86v5.8L39.3,86h-2.1
	c0.1,0.2,0.3,0.5,0.5,0.7v8.5h0.7V88h0.1l5.5,8V86H43.2z M46.6,86v9.2h1.7V86H46.6z"/>
</svg>
