<svg xmlns="http://www.w3.org/2000/svg" width="56.5" height="177" viewBox="0 0 56.5 177"><path fill-rule="evenodd" clip-rule="evenodd" fill="#55171B" d="M5.1 67.3c-.4-.6.4-2.1.4-2.7 0-.3 1.2-2.7 1.5-4 1.7-6.6 5.2-13.2 7.2-19.9.1 0 .2 0 .2-.1 6.5-1.8 12-.3 27.7 0h1.2c1.9 6.6 4.4 13.2 6.2 19.9.2 1.3 1.5 3.7 1.5 4 0 .6.9 1.8.4 2.4l-.1.3c.9 1.6.2 3.5.6 5.2v.4h-47.4v-.4c.4-1.6-.3-3.2.6-4.9v-.2zm48.7 95.9v2.4c0 2.2-1 6.7-3.5 7.8-3.5 1.7-7.1 1.9-10.6 2.3-.3 0-1.2.1-2.5.1h-9.4c-1.9 0-3.6 0-5.1-.1h-1.4c-.9 0-1.7 0-2.5-.1h-.8c-1.2 0-1.9-.1-2.2-.1-3.4-.5-7.1-.8-10.5-2.5-2.5-1.2-3.4-5.7-3.4-7.9v-2.4l.4-3.5c.6-4.6 3.2-9.4 3.7-14.1.1-1 .3-2.2.5-3.2l.1-9.6c-.1-.9-.1-1.7-.1-2.3 0-.6-.1-1.2-.1-1.6v-.1c0-1.2-.1-2-.1-2.1 0-.2-.7-6-1-8.9-.5-4.1-1.4-10.6-2.1-14.8l50.4.5c-.7 4.2-1.8 10.7-2.4 14.7-.4 2.9-1.2 8.7-1.2 8.9 0 .2 0 .9-.1 2.1v.1c0 .5-.1 1-.1 1.6 0 .5-.1 1.2-.1 2v.2l-.1 9.7c.2 1 .3 2.2.4 3.2.4 4.6 2.9 9.5 3.4 14.1l.4 3.6z"/><path fill-rule="evenodd" clip-rule="evenodd" fill="#D2D3D5" d="M18.2 22h21v-6l1-3-1-3-1-3 1-2v-3l-2-1h-18l-2 2v2l1 2-1 2v2l-1 2 1 2v2z"/><path fill="#fff" d="M52.3 71.4c.5-.8.5-1.5.5-2.1 0-.4-.2-2.8-.5-4.2-1-3.8-2.4-7.6-3.7-11.2-.9-2.6-1.9-5.3-2.7-8-1.3-3.8-3.1-9.5-4.4-14.4v-.1c-.3-.8-.5-1.7-.6-2.6l-.3-1.8-.3-3.3-.1-8.1c.2-.3.3-.5.5-.7.4-.5.8-1.2.8-2.3 0-1.1-.7-2.7-1.4-4.2-.3-.4-.7-1.3-.7-1.4 0-.4.1-.5.4-.9.4-.4.9-1 .9-2.1 0-3.4-3-3.7-5.3-3.9l-1.2-.1h-12c-.4 0-.8.1-1.1.1-2.4.2-5.3.5-5.3 3.9 0 1.1.5 1.7.9 2.1.2.3.3.5.3.8 0 .2-.4 1.1-.7 1.7-.6 1.4-1.4 3-1.4 4.2 0 1.1.5 1.7.8 2.3.2.2.3.4.5.7l-.1 8c-.1 1.2-.2 2.3-.3 3.4l-.3 1.8c-.1.9-.3 1.8-.6 2.6v.1c-1.3 4.9-3.1 10.5-4.4 14.4-.8 2.7-1.8 5.4-2.7 8-1.3 3.7-2.6 7.5-3.7 11.3-.2 1.3-.5 3.6-.5 4.1 0 .6 0 1.3.5 2.1-.3.5-.5.9-.7 1.4h2.2c.2-.5.4-.7.6-1 .3-.4.3-1-.1-1.4-.5-.5-.5-.6-.5-1.3 0-.2.1-1 .2-1.9 0-.4.1-.8.2-1.2v-.5c1-3.7 2.4-7.5 3.7-11.1.9-2.6 1.9-5.4 2.8-8.1.6-1.7 1.2-3.8 1.9-6 .9-2.8 1.7-5.7 2.5-8.5.4-1 .5-2 .7-3 .1-.6.2-1.1.3-1.6v-.1c.1-1.1.2-2.3.4-3.6l.1-8.3c0-.2 0-.3-.1-.5-.2-.5-.5-.9-.7-1.2-.3-.5-.5-.7-.5-1.1 0-.7.7-2.3 1.2-3.3.5-1.2.7-1.8.7-2.3 0-1.2-.6-1.8-.9-2.2-.3-.3-.4-.4-.4-.7 0-1.4.7-1.7 3.5-1.9.4-.1.8-.2 1.2-.2h11.7c.4 0 .8.1 1.1.1 2.8.3 3.5.5 3.5 1.9 0 .3-.1.4-.4.7-.4.4-.9 1-.9 2.2 0 .5.3 1.1.8 2.4.5 1.1 1.2 2.7 1.2 3.3 0 .4-.1.6-.5 1.1-.2.3-.5.7-.7 1.2-.1.1-.1.3-.1.5l.1 8.4c.1 1.2.2 2.4.4 3.5v.1l.3 1.6c.1 1 .3 2 .7 3 .7 2.8 1.6 5.7 2.5 8.5.7 2.2 1.4 4.2 1.9 5.9.9 2.7 1.8 5.4 2.8 8.1 1.3 3.7 2.6 7.4 3.6 11l.1.6.2 1.2c.1.9.2 1.7.2 1.9 0 .7 0 .9-.5 1.3-.4.4-.4 1-.1 1.4.2.3.4.5.5.8h2.2l-.7-1.3zm2.9 92.4l-.4-3.3c-.3-2.2-1.1-4.4-1.8-6.6-.8-2.2-1.5-4.5-1.8-6.6v-.2c-.1-.9-.2-1.9-.4-2.8v-8.9l.4-5.8c0-.4.6-4.5 1.1-8.3.6-4.1 1.7-10.7 2.3-14.6.3-1.7.4-2.4.5-2.8h-2c-.1.5-.2 1.5-.4 2.5-.7 4-1.8 10.6-2.4 14.7-.7 5.1-.9 7.1-1 7.9v.6c0 .1 0 .5-.1 1.1 0 .5-.1 1.2-.1 2v.3c-.1.7-.1 1.5-.2 2.4v9.3c.2.8.3 1.8.4 2.7v.2c.2 2.4 1.1 4.7 1.8 7 .7 2.1 1.4 4.2 1.7 6.2l.3 3.2v2.2c0 2.1-1 5.7-2.9 6.5-2.8 1.3-5.8 1.7-8.7 2l-1.6.2c-.2 0-.8.1-1.9.1h-.9c-2 0-5.1.1-9.1.1h-10.3c-.9 0-1.5 0-1.7-.1l-1.6-.2c-2.9-.3-5.9-.7-8.7-2-1.8-.8-2.8-4.3-2.8-6.5v-2.3l.3-3.2c.3-2 1-4.1 1.7-6.2.8-2.3 1.6-4.7 1.8-7v-.3c.1-.9.2-1.8.4-2.7v-9.4c-.1-.8-.1-1.6-.2-2.3-.1-.9-.1-1.7-.1-2.2 0-.6-.1-1-.1-1.1v-.6c-.1-.8-.3-2.8-1-7.9-.6-4.1-1.7-10.7-2.4-14.7-.2-1-.3-2-.4-2.5h-2c.1.4.2 1.1.5 2.8.7 3.9 1.8 10.5 2.3 14.6.6 4.7 1 8 1.1 8.2 0 .4.1 2.7.4 5.8v9c-.2.9-.3 1.9-.4 2.8v.3c-.2 2.1-1 4.4-1.8 6.6-.7 2.2-1.5 4.4-1.8 6.6l-.4 3.3v2.4c0 1.7.7 6.9 4 8.3 3.1 1.5 6.2 1.8 9.3 2.2l1.5.2c1.1.2 10.3.2 12.1.2s11 0 12.1-.2c.5-.1 1-.1 1.6-.2 3.1-.4 6.2-.7 9.3-2.2 3.3-1.4 4-6.6 4-8.3v-2.3c.5-.1.5-.2.5-.2z"/><path fill-rule="evenodd" clip-rule="evenodd" fill="#D2D3D5" d="M2.3 71s-3.3 11.7-2 33c0 0 29.3 8.4 56 0 0 0 1-24.8-2-33 0 0-23.8 4-52 0z"/><path fill-rule="evenodd" clip-rule="evenodd" fill="#ED3338" d="M44.4 88.9c0 1.1-.7 1.7-2 2-.2 0-.5.1-.6.1h-.4v-.7c0-.3.2-3.4 1.7-3.4 1.1-.1 1.3 1.5 1.3 2zm-18.8 2c0 .9 0 4.4-2 4.4-1.6 0-2-2.4-2-3.2v-2.3c.2-1.2.4-3.1 2-3.1 2 0 2 3.5 2 4.2zm7.1-8.4v8.1c.4-.5 2.9-3.2 2.9-3.6 0-.4-.6-.8-.9-1h3.7l-3.2 3.8c.5.9 1 1.8 1.6 2.7.3.4 1.2 2.3 2.2 2.3.1 0 .2 0 .4-.1-.7-.6-1.2-2.2-1.2-3v-.7c.3-3.5 3.2-4.8 5.5-4.8 1.3 0 3.7.2 3.7 2.4 0 2.9-4.8 3.1-5.9 3.3v.1c.3 1.8 1.1 2.6 2.5 2.6 1.1 0 2.2-.4 3.4-1.4-1 2.1-2.9 2.8-4.4 2.8-.1 0-1-.1-1.5-.2-.3 0-.7-.2-1-.3l-.5-.2c-.1 0-.2.1-.3.2-.7.5-1.4.6-2.1.6-2.6 0-2.8-1.9-4.5-4.4-.2.2-.5.5-.5.6v3.6h-3v-12.3c0-.4-.6-1.1-1-1.1h4.1zm-14.1 0h.6l-.3 3.7c-1-2.3-2.4-3.5-4.2-3.5-3.5 0-3.8 4.5-3.8 6.2 0 2.2.5 5.9 4.1 5.9 1.1 0 2.3-.5 3.3-1.6.1-.1.4-.3.4-.4l-.3-1.2v-1.2c.4-3.2 3.1-4.4 5.4-4.4 2.9 0 5.3 1.7 5.3 4.9 0 3.4-2.6 5.1-5.5 5.1-1.5 0-3.3-.5-4.5-2.2-1.7 1.9-3.4 2.2-5 2.2-2.6 0-5.5-1.1-6.5-4.7-.1-.5-.2-1.4-.2-1.5v-1.2c.4-4.6 3.9-6.7 7.2-6.7 1.3-.1 2.6.4 4 .6z"/><path fill-rule="evenodd" clip-rule="evenodd" fill="#333" d="M42.7 82.2v.2c-.2.4-.7.7-1 .8 0-.3.5-.8.8-1h.2zm2.4-1.2l-.5.8h.5c0 .4-.5.2-.7.2-.3.6-1 1.7-1 1.8v.2c0 .1 0 .1.1.1.2 0 .8-.8.9-.9h.2c-.3.6-1.2 1.4-1.7 1.4-.2 0-.4-.2-.4-.4 0-.1 0-.2.1-.3l-.1-.1c-.3.3-1 .8-1.5.8-.4 0-.7-.2-.7-.7-.3.2-1 .7-1.3.7-.2 0-.3-.2-.3-.4 0-.4 1.1-2.2 1.2-2.4h.7l-1.2 2.2s0 .1.1.1c.4 0 1.1-1.3 1.2-1.3.2-.3.5-.6.8-.8.2-.2.4-.2.7-.2.4 0 .5.1.5.4 0 .5-.6.9-1 1l-.6.2c-.1 0-.2.3-.2.4 0 .3.3.3.4.3.7 0 2-1.5 2.1-2.1h-.4c.1-.4.4-.1.5-.2.2-.2.4-.5.5-.8h1.1zm-3.7 0c0 .3-.4.4-.5.4-.2 0-.3-.2-.3-.3 0-.2.2-.4.5-.4.1 0 .3.2.3.3zm-2 1.1c0 .3-.2.7-.2.9-.6 1.2-2.3 1.8-3.3 1.8-.1 0-.9-.1-1.4-.2 1.5-1.1 1.6-2.8 3.3-3.7-.2.3-.3.6-.5 1-.2.8-1.1 2.1-2.1 2.5v.1h.5c1.4 0 3-1.1 3-2.7 0-1.5-1.5-1.6-2.3-1.6-.5 0-2.4.2-2.4 1.4 0 .3.2.5.5.5.4 0 .8-.4.8-.4l.3.1c.1 0 .6-.1.8-.2-.4.8-1.2 1.1-1.9 1.1-.6 0-1.1-.3-1.1-.9 0-1.5 2.5-1.8 3.1-1.8 1 0 2.9.6 2.9 2.1z"/></svg>