<svg xmlns="http://www.w3.org/2000/svg" width="56.5" height="177" viewBox="0 0 56.5 177"><path fill-rule="evenodd" clip-rule="evenodd" fill="#55171B" d="M5.2 67.3c-.4-.6.4-2.1.4-2.7 0-.3 1.2-2.7 1.5-4 1.7-6.6 5.2-13.2 7.2-19.9.1 0 .2 0 .2-.1 6.5-1.8 12-.3 27.7 0h1.2c1.9 6.6 4.4 13.2 6.2 19.9.2 1.3 1.5 3.7 1.5 4 0 .6.9 1.8.4 2.4l-.1.3c.9 1.6.2 3.5.6 5.2v.4h-47.4v-.4c.4-1.6-.3-3.2.6-4.9v-.2zm48.6 95.9v2.4c0 2.2-1 6.7-3.5 7.8-3.5 1.7-7.1 1.9-10.6 2.3-.3 0-1.2.1-2.5.1h-9.4c-1.9 0-3.6 0-5.1-.1h-1.4c-.9 0-1.7 0-2.5-.1h-.8c-1.2 0-1.9-.1-2.2-.1-3.4-.5-7.1-.8-10.5-2.5-2.5-1.2-3.4-5.7-3.4-7.9v-2.4l.4-3.5c.6-4.6 3.2-9.4 3.7-14.1.1-1 .3-2.2.5-3.2l.1-9.6c-.1-.9-.1-1.7-.1-2.3 0-.6-.1-1.2-.1-1.6v-.1c0-1.2-.1-2-.1-2.1 0-.2-.7-6-1-8.9-.5-4.1-1.4-10.6-2.1-14.8l50.4.5c-.7 4.2-1.8 10.7-2.4 14.7-.4 2.9-1.2 8.7-1.2 8.9 0 .2 0 .9-.1 2.1v.1c0 .5-.1 1-.1 1.6 0 .5-.1 1.2-.1 2v.2l-.1 9.7c.2 1 .3 2.2.4 3.2.4 4.6 2.9 9.5 3.4 14.1l.4 3.6z"/><path fill-rule="evenodd" clip-rule="evenodd" fill="#C5232C" d="M18.3 22h21v-6l1-3-1-3-1-3 1-2v-3l-2-1h-18l-2 2v2l1 2-1 2v2l-1 2 1 2v2z"/><path fill="#fff" d="M52.4 71.4c.5-.8.5-1.5.5-2.1 0-.4-.2-2.8-.5-4.2-1-3.8-2.4-7.6-3.7-11.2-.9-2.6-1.9-5.3-2.7-8-1.3-3.8-3.1-9.5-4.4-14.4v-.1c-.3-.8-.5-1.7-.6-2.6l-.3-1.8-.3-3.3-.1-8.1c.2-.3.3-.5.5-.7.4-.5.8-1.2.8-2.3 0-1.1-.7-2.7-1.4-4.2-.3-.4-.7-1.3-.7-1.4 0-.4.1-.5.4-.9.4-.4.9-1 .9-2.1 0-3.4-3-3.7-5.3-3.9-.4 0-.8-.1-1.1-.1h-12.1c-.4 0-.8.1-1.1.1-2.4.2-5.3.5-5.3 3.9 0 1.1.5 1.7.9 2.1.3.3.4.5.4.8 0 .2-.4 1.1-.7 1.7-.6 1.4-1.4 3-1.4 4.2 0 1.1.5 1.7.8 2.3.2.2.3.4.5.7l-.1 8c-.1 1.2-.2 2.3-.3 3.4l-.3 1.8c-.1.9-.3 1.8-.6 2.6v.1c-1.3 4.9-3.1 10.5-4.4 14.4-.8 2.7-1.8 5.4-2.7 8-1.3 3.7-2.6 7.5-3.7 11.3-.2 1.3-.5 3.6-.5 4.1 0 .6 0 1.3.5 2.1-.3.5-.5.9-.7 1.4h2.2l.5-.8c.3-.4.3-1-.1-1.4-.5-.5-.5-.6-.5-1.3 0-.2.1-1 .2-1.9 0-.4.1-.8.2-1.2 0-.2.1-.4.1-.5 1-3.7 2.4-7.5 3.7-11.1.9-2.6 1.9-5.4 2.8-8.1.6-1.7 1.2-3.8 1.9-6 .9-2.8 1.7-5.7 2.5-8.5.4-1 .5-2 .7-3 .1-.6.2-1.1.3-1.6v-.1c.1-1.1.2-2.3.4-3.6l.1-8.3c0-.2 0-.3-.1-.5-.2-.5-.5-.9-.7-1.2-.3-.5-.5-.7-.5-1.1 0-.7.7-2.3 1.2-3.3.6-1.3.8-1.9.8-2.4 0-1.2-.6-1.8-.9-2.2-.3-.3-.4-.4-.4-.7 0-1.4.7-1.7 3.5-1.9.4 0 .8-.1 1.1-.1h11.7c.4 0 .8.1 1.1.1 2.8.2 3.5.5 3.5 1.9 0 .3-.1.4-.4.7-.4.4-.9 1-.9 2.2 0 .5.3 1.1.8 2.4.5 1.1 1.2 2.7 1.2 3.3 0 .4-.1.6-.5 1.1-.2.3-.5.7-.7 1.2-.1.1-.1.3-.1.5l.1 8.4c.1 1.2.2 2.4.4 3.5v.1l.3 1.6c.1 1 .3 2 .7 3 .7 2.8 1.6 5.7 2.5 8.5.7 2.2 1.4 4.2 1.9 5.9.9 2.7 1.8 5.4 2.8 8.1 1.3 3.7 2.6 7.4 3.6 11l.1.6.2 1.2c.1.9.2 1.7.2 1.9 0 .7 0 .9-.5 1.3-.6.3-.6.9-.3 1.3.2.3.4.5.5.8h2.2c-.1-.4-.3-.9-.6-1.4zm2.9 92.4l-.4-3.3c-.3-2.2-1.1-4.4-1.8-6.6-.8-2.2-1.5-4.5-1.8-6.6v-.2c-.1-.9-.2-1.9-.4-2.8v-8.9l.4-5.8c0-.4.6-4.5 1.1-8.3.6-4.1 1.7-10.7 2.3-14.6.3-1.7.4-2.4.5-2.8h-2c-.1.5-.2 1.5-.4 2.5-.7 4-1.8 10.6-2.4 14.7-.7 5.1-.9 7.1-1 7.9v.6c0 .1 0 .5-.1 1.1 0 .5-.1 1.2-.1 2v.3c-.1.7-.1 1.5-.2 2.4v9.3c.2.8.3 1.8.4 2.7v.2c.2 2.4 1.1 4.7 1.8 7 .7 2.1 1.4 4.2 1.7 6.2l.3 3.2v2.2c0 2.1-1 5.7-2.9 6.5-2.8 1.3-5.8 1.7-8.7 2l-1.6.2c-.2 0-.8.1-1.9.1h-.9c-2 0-5.1.1-9.1.1h-10.3c-.9 0-1.5 0-1.7-.1l-1.6-.2c-2.9-.3-5.9-.7-8.7-2-1.8-.8-2.8-4.3-2.8-6.5v-2.3l.3-3.2c.3-2 1-4.1 1.7-6.2.8-2.3 1.6-4.7 1.8-7v-.3c.1-.9.2-1.8.4-2.7v-9.4c-.1-.8-.1-1.6-.2-2.3-.1-.9-.1-1.7-.1-2.2 0-.6-.1-1-.1-1.1v-.6c-.1-.8-.3-2.8-1-7.9-.6-4.1-1.7-10.7-2.4-14.7-.2-1-.3-2-.4-2.5h-2c.1.4.2 1.1.5 2.8.7 3.9 1.8 10.5 2.3 14.6.6 4.7 1 8 1.1 8.2 0 .4.1 2.7.4 5.8v9c-.2.9-.3 1.9-.4 2.8v.3c-.2 2.1-1 4.4-1.8 6.6-.7 2.2-1.5 4.4-1.8 6.6l-.4 3.3v2.4c0 1.7.7 6.9 4 8.3 3.1 1.5 6.2 1.8 9.3 2.2l1.5.2c1.1.2 10.3.2 12.1.2s11 0 12.1-.2c.5-.1 1-.1 1.6-.2 3.1-.4 6.2-.7 9.3-2.2 3.3-1.4 4-6.6 4-8.3v-2.3c.5-.1.5-.2.5-.2z"/><path fill-rule="evenodd" clip-rule="evenodd" fill="#C5232C" d="M2.3 71s-3.3 11.7-2 33c0 0 29.3 8.4 56 0 0 0 1-24.8-2-33 0 0-23.8 4-52 0z"/><path fill-rule="evenodd" clip-rule="evenodd" fill="#fff" d="M39.4 92.5c-.1.3-1.5 2.7-2.5 2.7-.4 0-.5-.3-.5-.6 0-.9 1-2.6 1.6-3.3.2.5.9 1 1.4 1.2zm9.8-2.7c0 .1-.4.7-.6 1.1l-.9 1.5c-.3.4-1.5 2.8-2.3 2.8-.2 0-.3-.2-.3-.3 0-1.3 2.8-5.3 3.8-5.3.2 0 .3 0 .3.2zm-8.9.3c0 .6-.3 1.4-.6 1.9-.4 0-1-.6-1-1v-.4c.1-.6.8-1.1 1.2-1.1.3 0 .4.4.4.6zm-27.1-2.8c.3.5.9.9 1.5 1.1-.2.3-1.6 2.8-2.6 2.8-.4 0-.5-.4-.5-.6 0-.9 1-2.4 1.6-3.3zm12.5-1.5c0 .1-.4.6-.5 1l-1.3 2.2c0 .1-1.2 2.3-2 2.3-.3 0-.3-.2-.3-.3 0-1.2 2.4-4.3 3.2-5 .1-.1.5-.3.7-.3 0-.1.2 0 .2.1zm-10.2.5c0 .5-.3 1.2-.5 1.6-.7 0-1.2-.5-1.2-1s.6-1.3 1.2-1.3c.4 0 .5.4.5.7zm14.9-1.2l-.8 1.3h-1.5l.8-1.3h1.5zm-14.4.9c0 .6-.3 1.3-.5 1.9h.1c.2-.1.4-.2.5-.2.6-.3 1.3-1.1 2-1.7.7-.7 1.4-1.1 2.2-1.1.6 0 1.1.4 1.1 1 0 .3-.5 1.8-1.3 1.8-.3 0-.4-.2-.4-.4 0-.3.3-.8.7-1 .1 0 .2 0 .4-.1.1 0 .1-.2.1-.2 0-.3-.3-.4-.4-.4-.8 0-2.1 1.6-2.5 2.3l-.7 1.2c-.3.6-.5 1.2-.5 1.7 0 .4.1.9.7.9 1 0 2.1-1.4 2.8-2.2 1-1.3 1.9-2.8 3.4-4 .4-.3 1-.6 1.4-.6.3 0 .6.1.9.5l.2-.3h1.6c-1.1 1.9-2.2 3.8-3.4 5.7v.2c0 .1.1.2.2.2l.5-.3c.7-.6 1.3-1.4 1.8-2h.5c-.5.8-2.8 3.9-4.2 3.9-.4 0-.6-.1-.7-.6-.1-.5 0-.6 0-.6-.6.6-1.4 1.2-2 1.2-.7 0-.9-.5-.9-1 0-.1.1-.7.2-1.1-1.2 1.2-2.2 2.1-3.4 2.1-1.2 0-1.4-1.1-1.4-1.8 0-.8.6-2 1-2.7h-.1c-.1 0-.5.1-.7.2 0 0-.1.1-.1.2-.7 1.2-1.9 2.9-3.4 3.8-.4.2-.7.4-1.1.4-1 0-1.1-.9-1.1-1.4 0-2.4 3.3-6.5 5.4-6.5.9-.1 1.1.5 1.1 1zm23.4-3.4c-.1.5-.2 1-.4 1.5-.1.3-.4.8-.7 1.2-.2.3-1.4 1.6-1.9 1.6-.4 0-.5-.2-.5-.5 0-1.1 2-3.5 3-3.9.1-.1.3-.2.5-.2v.3zm11.5-.7c0 .4-.1.6-.2 1 0 .1-.1.3-.2.4-.1.1-.3.1-.4.1h-.1c.2-.4.6-1 .6-1.4 0-.2-.1-.2-.2-.2-.8 0-3 2.7-3.2 2.9-1.5 2-2.9 4.1-3.9 6.1v.1c.4-.2.8-.5 1.1-.9 1.3-1.2 2.8-2.7 3.8-4l.3-.4h.5c-.2.4-.5.8-.9 1.1-1.2 1.4-2.9 3.3-4.4 4.4-.4.3-.8.5-1.1.8-.2.1-.2.4-.3.6-.2.4-.7 1.8-.7 2.4 0 .2 0 .6.3.6s.8-.6.9-.8c1.2-1.7 2-3.5 4-5 .6-.5 1-.7 1.6-.7.4 0 .5.1.9.6.1-.1.2-.2.3-.4h1.5l-1.7 2.9c-.2.3-.4.8-.7 1.1 0 .1-1.1 1.7-1.1 2.1 0 .1.1.2.2.2 0 0 .3-.1.4-.2.8-.6 1.5-1.6 2-2.3h.5c-.4.7-2.8 4-4.2 4-.6 0-.7-.4-.7-.9v-.4c-.6.6-1.4 1.3-2 1.3-.7 0-.9-.6-.9-1.1v-.5c-.7.7-1.5 1.6-2.3 1.6-.5 0-1-.5-1-1v-.6c.1-.9.5-1.7.7-2.6v-.1c-.2 0-.5 0-.8.1-.1 0-.1.1-.2.2-.5.7-.9 1.5-1.6 2.3-.7.8-1.8 1.7-2.6 1.7-.2 0-.5-.1-.7-.3-.1-.1-.3-.5-.3-.7v-.5c.2-2.2 3.2-6.4 5.3-6.4.7 0 1 .5 1 1.1 0 .6-.4 1.5-.7 2.2l.1.1c.2 0 .7-.1.8-.2.3-.5.6-1.1.9-1.7.9-1.8 2.1-3.5 3.6-5.3 1-1.2 3.5-3.7 4.9-3.7.8-.4.9-.1.9.3zm-2.7 3.3c-.5 0-.4 0-1-.1l1.1-1.3h.5c1.8 0 3.8-1 5.5-2.7-1.4 2.6-4 4.1-6.1 4.1zm-8.9-4c.1.1.3.3.4.3 0 0 .1-.1.2-.1.6-.2 1.2-.4 1.9-.4.9 0 1.8.3 2.7.8.7.4 1.5.9 2.3 1.3l-1.2 1.2c-1.6-.8-3.5-2.5-5.1-2.5-.2 0-.3 0-.5.1v.7l-.1.4c0 .2-.1.5-.2.8-.5 1.4-2.1 3.5-3.3 3.5-.6 0-.8-.5-.8-1 0-.3.1-.7.2-.9.4-1.1 1.7-2.7 3-3.5l.4-.2c0-.1-.4-.1-.5-.1-.8 0-2 .8-2.6 1.3-2.9 2.3-5.4 6.1-6.1 8.3-.2.6-.5 1.8-.5 2.6 0 .7.3 1.7 1.4 1.7.5 0 .9-.2 1.4-.6 1.5-1.1 2.8-3.4 2.8-4.7 0-.3-.1-.7-.5-.7-.7 0-1.2 1-1.5 1.5-.2.3-.2.7-.4 1.1-.6.3-1.4.9-2 1.5.1-2.2 1.8-4.8 3.8-4.8.9 0 1 .8 1 1.3 0 1.9-2.1 5.3-4.5 6.3-.5.2-.9.3-1.3.3-1.8 0-2.4-1.8-2.4-2.9 0-.9.2-1.7.6-2.6 1.2-3.3 5.2-8.5 9-9.8.5-.2 1-.3 1.5-.3.3-.1.6 0 .9.1zm-23.5 1.1c0 .4-.5 1.9-1.3 1.9-.4 0-.4-.2-.4-.5 0-.4.2-.8.7-1.1l.5-.1c.1 0 .1-.2.1-.3 0-.4-.3-.5-.6-.5-.5 0-1.2.3-1.6.6-2.9 1.9-5.2 5.6-5.9 7.6-.3 1-.7 2-.7 3 0 2.2 1.5 3 3.2 3 2.4 0 6.7-1.8 10-1.8 2 0 3.5.4 5.7 2.4.2.1.4.4.5.5-1.1-.7-2.4-1.1-3.6-1.1-.8 0-1.6 0-2.3 1.1-1-1.6-2.5-1.7-3.7-1.7-2.6 0-6.1 1.5-8.2 1.5-2.6 0-3.9-1.7-3.9-4 0-3 2.2-7.1 5.6-9.7.3-.2.6-.5 1-.7 1.2-.7 2.4-1.3 3.6-1.3.8-.1 1.3.5 1.3 1.2z"/></svg>