<?xml version="1.0" encoding="utf-8"?>
<!-- Generator: Adobe Illustrator 18.0.0, SVG Export Plug-In . SVG Version: 6.00 Build 0)  -->
<!DOCTYPE svg PUBLIC "-//W3C//DTD SVG 1.1//EN" "http://www.w3.org/Graphics/SVG/1.1/DTD/svg11.dtd">
<svg version="1.1" id="Layer_1" xmlns="http://www.w3.org/2000/svg" xmlns:xlink="http://www.w3.org/1999/xlink" x="0px" y="0px"
	 width="70px" height="40px" viewBox="0 0 70 40" enable-background="new 0 0 70 40" xml:space="preserve">
<g>
	<path fill-rule="evenodd" clip-rule="evenodd" fill="#FFFFFF" d="M32.5,22.2c0,2-1.6,5.2-3.9,6.5c-0.3,0.1-0.6,0.3-0.9,0.4
		c-0.3,0.1-0.6,0.3-0.9,0.4c0,0-0.1,0-0.1-0.1c0-0.1,0.8-0.9,1.1-1.3c0.5-0.7,0.8-1.5,1.1-2.1c0.4-0.9,0.7-2,0.8-2.9v-1.1
		c0-0.4-0.4-0.8-0.8-0.8c-0.9,0-1.1,1.3-1.2,1.8c-0.5,3.1-0.4,6.4-1.6,9.2c-0.5,1.2-2.1,1.5-3.1,2.2l1.8-10.1
		c0.1-0.5,0.2-1.4,0.2-1.5c0-0.4-0.1-1.3-0.8-1.5c0.7-0.3,1.4-0.5,2.2-0.8c1.3-0.4,2.4-1,3.6-1C31.8,19.6,32.5,20.9,32.5,22.2z
		 M26,17l-0.6,3c-0.8-0.9-1.7-1.3-2.5-1.3c-0.8,0-2.1,0.5-2.1,1.6c0,1.8,3.2,2.3,3.2,5.5c0,0.9-0.3,1.8-0.7,2.7
		c-1.6,3.1-4.7,4.4-7,4.4c-0.5,0-1.3-0.1-1.7-0.2l1.1-3.8c0.8,0.6,1.4,0.9,2.2,0.9c1.1,0,2.6-0.7,3-2.3v-0.6
		c-0.1-0.2-0.2-0.6-0.4-0.8c-0.4-0.6-1.2-1.1-1.8-1.5c-0.6-0.5-1.1-1.5-1.1-2.1v-0.6c0.4-3.8,3.9-5.1,6.5-5.1
		C24.7,16.7,25.4,16.8,26,17z M38.5,19.1c-0.3,0-0.7,0.1-1,0.2c-1.4,0.5-1.5,1.9-1.6,2.8c-0.2,1.6-0.5,3.2-0.8,4.8
		c-1,0.6-2.1,1.1-3.2,1.7l1.2-7.4V20c-0.1-0.4-0.1-1.1-0.6-1.5l1.6-0.6c0.4,0.1,1.1,0.8,1.3,1.3c0.5-0.9,1.4-2.5,2.6-2.9
		c0.2,0,0.4-0.2,0.6-0.2c0.1,0,0.2,0,0.4-0.1C38.9,17.1,38.8,18.2,38.5,19.1z M41.4,24.3l-3.2,1.2c0.1-0.7,0.2-1.5,0.4-2.2
		c0.1-0.6,0.2-1.2,0.3-1.8l0.2-1.5c0.1-0.4,0.2-0.9,0.2-1.3l0.2-1c0.1-0.4,0.1-0.8,0.2-1.1c0.1-0.2,0-0.5,0.1-0.6
		c0.9-0.6,2.1-0.9,3.1-1.4C42.5,17.7,42,21,41.4,24.3z M55.5,13.6c0,1.6-1.5,3.3-3.3,4.1c-0.3,0.1-0.8,0.4-0.9,0.4h-0.1
		c0,0,0,0,0-0.1c0-0.1,0.5-0.5,0.8-0.8c0.7-0.7,1.5-2.4,1.5-3.3c0-0.2-0.1-0.6-0.4-0.6c-0.2,0-0.4,0.1-0.6,0.4
		c-0.8,0.9-1.1,2.3-1.3,3.3c-0.1,0.6-0.2,1-0.2,1.6c0,0.6,0.2,1.7,1.1,1.7c1.2,0,2.4-1.5,3-2.7c0.1,0.1,0.4,0.3,0.4,0.4
		c0,0.1-0.4,0.8-0.6,1.3c-1.1,1.9-2.9,3.1-4.5,3.1c-1.8,0-2.4-1.4-2.4-2.8c0-0.9,0.3-2,0.6-2.8c0.8-2.4,3.4-4.6,5.5-4.6
		C54.9,12,55.5,12.6,55.5,13.6z M47.8,12.3L47.8,12.3l2.9-0.9v0.1c0,0.2-0.1,0.4-0.2,0.7c-0.5,1.4-1.9,1.4-2.9,1.9
		c-0.3,2.9-0.7,5.9-1.1,8.8c-1,0.3-2.1,0.6-3.2,0.9l1.2-8.6c0,0,0,0-0.1,0l-1.3,0.4v-0.2l0.2-1.1c0,0,0-0.1,0-0.1
		c0.2-0.2,0.4-0.4,0.7-0.6c0.3-0.2,0.6-0.6,0.8-0.9c0.6-0.8,1.1-1.6,1.5-2.4c0.2-0.3,0.2-0.8,0.4-1c0.4-0.5,0.9-0.9,1.4-1.3
		L47.8,12.3z"/>
	<path fill-rule="evenodd" clip-rule="evenodd" fill="#FFFFFF" d="M56.2,8.8c2,0,3.7-0.6,5.8-1.3c-2,3.6-3.2,7.4-3.2,11.1
		c0,3.1,0.8,6.4,2.9,9.4c-2-0.3-4.1-0.5-6.1-0.7l-1.2,0l-4.1,0c-4.7,0.2-9.5,1.1-14.1,3.1c-4.7,2-9.4,5.1-14.1,9.6
		c-0.2-0.3-0.5-0.6-0.8-0.8c-4.4-3.9-8.9-5.9-13.3-6.1c0.3-0.5,0.7-1.1,1-1.5c2.6-3.7,4.2-7.5,4.8-11.1c0.2-1.1,0.3-2.4,0.4-3.5
		v-3.6L14,10.2c4.1,1.6,8.2,2.8,12.4,3.2c0.5,0,1.5,0.1,1.6,0.1h2.3l1-0.1h0.1c0.3,0.4,0.9,0.8,1.2,1.1c-0.2,0-2.8,0.5-3.6,0.5h-3.2
		c-3.2-0.2-6.5-1-9.8-2.1v1.8c-0.4,6-2.7,11.9-7.2,17.9c4.4,0.4,8.7,2.1,13.1,6c0.6-0.5,1.2-0.9,1.7-1.4c5.1-4.1,10.2-7.1,15.3-8.9
		c5.6-2,11.3-2.9,17-3.2l2.1-0.1c-0.2-1.1-0.6-2.7-0.6-3.7V20c0-0.7,0.1-1.4,0.2-2.1c0.5-3.2,1.8-6.4,3.4-9.6l0,0
		c-1.8,0.7-3.7,1.1-5.4,1.1c-3.7,0-6.2-2-6.8-6.9c0,0,0,0,0,0l-1.7,2.6C47,4.8,47,4.3,47,4.3c0-0.1,0.4-0.6,0.6-1
		C48.3,2.2,49,1,49.6,0C49.8,5.2,51.4,8.8,56.2,8.8z"/>
	<path fill-rule="evenodd" clip-rule="evenodd" fill="#F2D427" d="M44.7,3c0.4,0,0.6-0.2,1-0.2c0.5,0,0.8,0.3,0.8,0.8
		c0,0.1-0.1,0.6-0.3,0.6c-0.1,0-0.1-0.1-0.1-0.2c0-0.1,0-0.2,0-0.2c0-0.1-0.1-0.3-0.2-0.3c-0.1,0-0.1,0.1-0.2,0.2
		c-0.5,1.3-1,2.7-2,3.9c-2,2.6-4.6,3.9-6.9,4.4c-0.8,0.2-1.5,0.3-2.2,0.3c-0.1,0-0.6,0-0.9-0.1c-0.4,0-0.9-0.1-1.3-0.2
		c-0.4-0.1-1.2-0.2-1.3-0.2c-0.1,0-0.2,0-0.2,0.1c0,0.2,0.5,0.2,0.5,0.5c0,0.1-0.2,0.1-0.3,0.1c-0.5,0-0.8-0.4-0.8-0.8
		c0-0.7,0.6-0.6,1-1.4c0.1-0.2,0.1-0.5,0.2-0.8c0.1-0.6,0.2-1.2,0.5-1.7C33.8,3.5,37.4,2,40.5,2C43,2,43.8,3,44.7,3z"/>
	<path fill-rule="evenodd" clip-rule="evenodd" fill="#6AB24C" d="M46.2,6.5c0,1.2-0.2,2.2-0.8,3.4c-1.9,3.7-5.2,5-8,5
		c-0.1,0-0.8,0-1.1-0.1c-0.6-0.1-1.2-0.2-1.7-0.4c-0.4-0.1-0.9-0.4-1.3-0.6c-0.1,0-1.3-0.9-1.3-1.3c0-0.1,0.1-0.1,0.1-0.1
		c0.1,0,0.6,0.1,0.9,0.2c0.6,0.1,1.3,0.2,2,0.2c0.8,0,1.6-0.1,2.4-0.3c0.6-0.1,1.3-0.4,2-0.6c1.8-0.7,4.4-2.8,5.4-4.8
		c0.1-0.2,0.3-0.5,0.4-0.8c0.2-0.3,0.5-1.4,0.7-1.4C46.2,4.8,46.2,6.3,46.2,6.5z"/>
</g>
</svg>
