<?xml version="1.0" encoding="utf-8"?>
<!-- Generator: Adobe Illustrator 18.0.0, SVG Export Plug-In . SVG Version: 6.00 Build 0)  -->
<!DOCTYPE svg PUBLIC "-//W3C//DTD SVG 1.1//EN" "http://www.w3.org/Graphics/SVG/1.1/DTD/svg11.dtd">
<svg version="1.1" id="Layer_1" xmlns="http://www.w3.org/2000/svg" xmlns:xlink="http://www.w3.org/1999/xlink" x="0px" y="0px"
	 width="70px" height="40px" viewBox="0 0 70 40" enable-background="new 0 0 70 40" xml:space="preserve">
<path fill-rule="evenodd" clip-rule="evenodd" fill="#FFFFFF" d="M49.1,24.8c-0.2,0.4-2.1,3.7-3.5,3.7c-0.6,0-0.7-0.5-0.7-0.8
	c0-1.2,1.4-3.6,2.3-4.5C47.5,23.8,48.4,24.5,49.1,24.8z M62.9,21.1c0,0.1-0.6,1-0.8,1.4c-0.4,0.6-0.8,1.4-1.2,2
	c-0.4,0.6-2.1,3.9-3.3,3.9c-0.4,0-0.4-0.2-0.4-0.4c0-1.7,3.9-7.2,5.3-7.2C62.7,20.8,62.9,20.9,62.9,21.1z M50.4,21.5
	c0,0.8-0.5,1.9-0.9,2.6c-0.5,0-1.4-0.9-1.4-1.3v-0.6c0.1-0.9,1-1.5,1.7-1.5C50.3,20.6,50.4,21.3,50.4,21.5z M12.4,17.7
	c0.4,0.8,1.3,1.3,2,1.5c-0.2,0.4-2.2,3.9-3.7,3.9c-0.5,0-0.6-0.5-0.6-0.8C10.1,21,11.6,18.9,12.4,17.7L12.4,17.7z M29.9,15.7
	c0,0.1-0.5,0.9-0.8,1.4c-0.6,0.9-1.2,2-1.8,3c-0.1,0.1-1.8,3.2-2.8,3.2c-0.4,0-0.4-0.2-0.4-0.4c0-1.7,3.4-5.9,4.4-6.9
	c0.2-0.2,0.7-0.4,1-0.4C29.7,15.4,29.9,15.5,29.9,15.7z M15.6,16.2c0,0.7-0.5,1.6-0.7,2.2c-0.9,0-1.7-0.6-1.7-1.4
	c0-0.7,0.8-1.8,1.7-1.8C15.5,15.3,15.6,15.9,15.6,16.2z M36.5,14.7l-1.2,1.8h-2l1.1-1.8H36.5z M16.4,15.9c0,0.8-0.4,1.8-0.7,2.6h0.2
	c0.3-0.1,0.5-0.2,0.7-0.3c0.9-0.4,1.8-1.5,2.8-2.3c1-0.9,1.9-1.5,3-1.5c0.9,0,1.6,0.5,1.6,1.4c0,0.5-0.7,2.5-1.8,2.5
	c-0.5,0-0.6-0.3-0.6-0.6c0-0.5,0.4-1.2,1-1.4c0.1-0.1,0.4-0.1,0.5-0.1c0.1-0.1,0.1-0.2,0.1-0.3c0-0.4-0.4-0.5-0.6-0.5
	c-1.1,0-2.9,2.2-3.5,3.1c-0.4,0.5-0.7,1.1-1,1.7c-0.4,0.8-0.8,1.6-0.8,2.3c0,0.5,0.1,1.2,0.9,1.2c1.3,0,3-2,3.9-3.1
	c1.4-1.8,2.7-3.8,4.8-5.4c0.6-0.4,1.4-0.8,2-0.8c0.4,0,0.9,0.2,1.2,0.7c0.1-0.1,0.2-0.2,0.3-0.4h2.2c-1.6,2.6-3.2,5.2-4.7,7.8
	C28,22.5,28,22.7,28,22.8c0,0.2,0.1,0.3,0.2,0.3c0.1,0,0.7-0.4,0.8-0.4c1-0.8,1.9-1.9,2.6-2.8h0.7c-0.7,1.1-4,5.4-5.9,5.4
	c-0.5,0-0.9-0.2-1-0.8c-0.1-0.7,0-0.8,0-0.8c-0.9,0.9-1.9,1.7-2.8,1.7c-1,0-1.3-0.6-1.3-1.3c0-0.1,0.2-1,0.2-1.5
	c-1.8,1.6-3,2.8-4.7,2.8c-1.7,0-2-1.5-2-2.5c0-1,0.9-2.8,1.4-3.7c0,0,0,0-0.1,0c-0.1,0-0.7,0.1-1,0.2c-0.1,0-0.1,0.1-0.2,0.2
	c-0.9,1.7-2.6,4.1-4.7,5.3c-0.6,0.3-1,0.5-1.5,0.5c-1.3,0-1.5-1.2-1.5-1.9c0-3.3,4.6-9,7.5-9C16,14.4,16.4,15.2,16.4,15.9z
	 M49.2,11.2c-0.1,0.7-0.3,1.4-0.6,2c-0.2,0.5-0.6,1.1-0.9,1.7c-0.3,0.4-2,2.2-2.7,2.2c-0.5,0-0.6-0.3-0.6-0.7c0-1.5,2.7-4.7,4.1-5.4
	c0.2-0.1,0.5-0.2,0.7-0.3V11.2z M65.2,10.2c0,0.5-0.1,0.8-0.3,1.3c-0.1,0.1-0.1,0.4-0.3,0.6c-0.1,0.1-0.4,0.1-0.6,0.2h-0.1
	c0.2-0.5,0.8-1.4,0.8-1.9c0-0.2-0.1-0.3-0.2-0.3c-1.1,0-4.3,3.7-4.4,4c-2.1,2.7-4,5.6-5.4,8.4c0,0,0,0,0,0.1
	c0.5-0.3,1.1-0.7,1.6-1.2c1.9-1.7,4-3.7,5.4-5.5c0.1-0.2,0.3-0.4,0.5-0.6c0.2,0,0.5,0,0.7-0.1c-0.4,0.5-0.8,1.1-1.2,1.6
	c-1.6,2-4.1,4.5-6.2,6c-0.5,0.4-1.1,0.7-1.5,1.1c-0.2,0.2-0.2,0.6-0.4,0.8c-0.2,0.5-1,2.5-1,3.3c0,0.3,0,0.8,0.5,0.8
	c0.4,0,1.1-0.8,1.3-1.1c1.7-2.3,2.9-4.8,5.5-6.9c0.8-0.7,1.4-1,2.2-1c0.5,0,0.8,0.1,1.3,0.8c0.1-0.1,0.2-0.3,0.4-0.5h2.2l-2.3,4
	c-0.3,0.5-0.6,1.1-0.9,1.6c-0.1,0.1-1.5,2.4-1.5,2.8c0,0.1,0.2,0.3,0.3,0.3c0.1,0,0.4-0.2,0.6-0.3c1.2-0.9,2-2.2,2.8-3.2h0.7
	c-0.5,0.9-3.9,5.5-5.9,5.5c-0.8,0-1-0.6-1-1.2c0-0.1,0-0.4,0-0.6c-0.8,0.8-2,1.8-2.8,1.8c-1,0-1.3-0.8-1.3-1.5c0-0.1,0-0.4,0-0.7
	c-0.9,1-2.1,2.2-3.2,2.2c-0.7,0-1.3-0.7-1.3-1.3v-0.8c0.2-1.2,0.6-2.4,1-3.6l0-0.1c-0.4,0.1-0.8,0.1-1.1,0.1c-0.2,0-0.2,0.1-0.2,0.2
	c-0.7,1-1.3,2.1-2.2,3.1c-1,1.1-2.5,2.3-3.7,2.3c-0.3,0-0.7-0.1-0.9-0.4c-0.2-0.2-0.5-0.7-0.5-1v-0.7c0.2-3.1,4.4-8.8,7.4-8.8
	c1,0,1.4,0.7,1.4,1.5c0,0.9-0.5,2.1-0.9,3c0.1,0,0.1,0.1,0.2,0.1c0.3,0,0.9-0.1,1.1-0.3c0.5-0.7,0.8-1.5,1.2-2.3
	c1.3-2.4,2.9-4.9,5-7.3c1.4-1.6,4.8-5.1,6.8-5.1C65.1,9.3,65.2,9.7,65.2,10.2z M61.4,14.8c-0.7,0-0.6,0-1.4-0.2l1.6-1.8
	c0.2,0,0.7,0,0.7,0c2.5,0,5.3-1.4,7.6-3.7C68,12.8,64.4,14.8,61.4,14.8z M48.9,9.3c0.1,0.1,0.4,0.4,0.5,0.4c0.1,0,0.2-0.1,0.2-0.1
	c0.9-0.3,1.8-0.5,2.6-0.5c1.2,0,2.6,0.4,3.8,1.2c1,0.6,2.1,1.2,3.2,1.8l-1.7,1.7c-2.2-1.1-4.8-3.4-7.1-3.4c-0.2,0-0.5,0-0.7,0.1v1
	l-0.1,0.5c-0.1,0.3-0.2,0.7-0.3,1.1c-0.7,1.9-2.9,4.8-4.6,4.8c-0.9,0-1.2-0.7-1.2-1.3c0-0.4,0.2-0.9,0.3-1.2
	c0.6-1.6,2.4-3.7,4.2-4.8l0.6-0.3c-0.1-0.1-0.6-0.2-0.6-0.2c-1,0-2.7,1.1-3.6,1.8c-4.1,3.2-7.5,8.4-8.6,11.4
	c-0.3,0.8-0.8,2.5-0.8,3.5c0,1,0.4,2.3,1.9,2.3c0.6,0,1.2-0.3,1.9-0.8c2.1-1.5,4-4.6,4-6.5c0-0.4-0.1-0.9-0.7-0.9
	c-1,0-1.7,1.3-2.1,2c-0.2,0.4-0.4,1-0.5,1.5c-0.9,0.4-2,1.2-2.8,2.1c0.2-3,2.5-6.6,5.3-6.6c1.2,0,1.4,1.1,1.4,1.8
	c0,2.7-3,7.2-6.2,8.6c-0.7,0.3-1.2,0.4-1.9,0.4c-2.6,0-3.3-2.5-3.3-4c0-1.3,0.3-2.3,0.8-3.6c1.6-4.5,7.2-11.6,12.6-13.5
	c0.7-0.2,1.5-0.4,2.1-0.4C48.1,9.1,48.6,9.1,48.9,9.3z M16,10.7c0,0.6-0.7,2.6-1.9,2.6c-0.5,0-0.6-0.3-0.6-0.7
	c0-0.5,0.3-1.1,0.9-1.5c0.2-0.1,0.5-0.1,0.7-0.2c0.2-0.1,0.1-0.3,0.1-0.4c0-0.6-0.5-0.7-0.9-0.7c-0.7,0-1.7,0.5-2.2,0.9
	c-4,2.7-7.3,7.7-8.3,10.5C3.4,22.6,3,24,3,25.4c0,3,2,4.1,4.4,4.1c3.3,0,9.4-2.5,14-2.5c2.8,0,4.9,0.6,8,3.3
	c0.2,0.2,0.5,0.5,0.7,0.7c-1.6-1-3.4-1.5-5-1.5c-1.1,0-2.2,0-3.1,1.5c-1.4-2.1-3.4-2.3-5.2-2.3c-3.6,0-8.5,2-11.5,2
	c-3.6,0-5.5-2.3-5.5-5.5c0-4.2,3.1-9.8,7.8-13.3c0.5-0.3,0.9-0.7,1.4-1c1.7-1,3.4-1.8,5-1.8C15.4,9,16,9.8,16,10.7z"/>
</svg>
