<?xml version="1.0" encoding="utf-8"?>
<!-- Generator: Adobe Illustrator 18.0.0, SVG Export Plug-In . SVG Version: 6.00 Build 0)  -->
<!DOCTYPE svg PUBLIC "-//W3C//DTD SVG 1.1//EN" "http://www.w3.org/Graphics/SVG/1.1/DTD/svg11.dtd">
<svg version="1.1" id="Layer_1" xmlns="http://www.w3.org/2000/svg" xmlns:xlink="http://www.w3.org/1999/xlink" x="0px" y="0px"
	 width="70px" height="40px" viewBox="0 0 70 40" enable-background="new 0 0 70 40" xml:space="preserve">
<rect y="188.7" fill-rule="evenodd" clip-rule="evenodd" fill="#A0FFBF" width="70" height="40"/>
<path fill-rule="evenodd" clip-rule="evenodd" fill="#ED3338" d="M61.9,20c0,1.8-1.1,2.6-3.1,3.1c-0.3,0.1-0.7,0.2-0.9,0.2h-0.7
	v-1.1c0.1-0.5,0.3-5.4,2.7-5.4C61.7,16.7,61.9,19.3,61.9,20z M32.3,23.1c0,1.4-0.1,6.8-3.2,6.8c-2.5,0-3.1-3.8-3.1-4.9v-3.6
	c0.3-1.8,0.7-4.8,3.2-4.8C32.3,16.6,32.3,22,32.3,23.1z M43.5,10l0.1,12.6c0.6-0.8,4.5-5.1,4.5-5.6c0-0.6-0.9-1.3-1.4-1.6h5.8
	l-5.1,5.9c0.8,1.4,1.6,2.8,2.5,4.2c0.5,0.6,2,3.6,3.4,3.6c0.2,0,0.4,0,0.6-0.1c-1-1-1.9-3.4-1.9-4.7V23c0.5-5.5,5-7.5,8.7-7.5
	c2,0,5.8,0.4,5.8,3.8c0,4.5-7.6,4.8-9.3,5.1v0.3c0.5,2.9,1.8,4.1,4,4.1c1.8,0,3.5-0.7,5.3-2.2C65.1,30,62.1,31,59.7,31
	c-0.1,0-1.6-0.1-2.4-0.3c-0.5-0.1-1.1-0.3-1.5-0.5c-0.2-0.1-0.6-0.4-0.7-0.4c-0.2,0-0.3,0.2-0.5,0.3c-1.2,0.8-2.2,0.9-3.3,0.9
	c-4.1,0-4.3-2.9-7.1-6.9c-0.3,0.3-0.8,0.7-0.8,0.9v5.6h-4.7V11.7c-0.1-0.6-1-1.7-1.6-1.7H43.5z M21.3,10c0.2,0.1,0.6,0.1,0.9,0
	l-0.5,5.8c-1.6-3.6-3.7-5.5-6.5-5.5c-5.4,0-6,7.1-6,9.7c0,3.4,0.8,9.2,6.5,9.2c1.7,0,3.6-0.8,5.2-2.5c0.1-0.2,0.6-0.5,0.6-0.6
	c0-0.2-0.5-1.8-0.5-1.9v-1.8c0.6-5.1,4.9-6.8,8.5-6.8c4.6,0,8.3,2.6,8.3,7.6c0,5.3-4.1,7.9-8.6,7.9c-2.3,0-5.2-0.7-7.1-3.5
	c-2.6,2.9-5.3,3.5-7.9,3.5c-4.1,0-8.6-1.7-10.3-7.3c-0.2-0.8-0.4-2.2-0.4-2.3v-1.9C4.2,12.3,9.7,8.9,14.9,8.9
	C17.1,8.9,19.1,9.6,21.3,10z"/>
<path fill-rule="evenodd" clip-rule="evenodd" fill="#FFFFFF" d="M22.7,210.8c-1.3-0.2-2.6-0.2-3.9,0.5l1.9-6.3L22.7,210.8z
	 M41.9,210.7c-0.5,0.1-1.2,0-1.5,0c-0.7,0-2,0.3-2.5,0.6l2-6.4L41.9,210.7z M7.9,201.7c3.6,0.9,4.5,4.7,4.5,6.9
	c0,1.2-0.4,2.5-0.8,3.7c-0.4,1.1-2.5,3.3-3.9,3.3H7v-14H7.9z M66,201.6v14.2h-2.7v-14.2H66z M52.1,201.6l6.1,8.8v-8.8h1.2v15.3
	L51,204.6h-0.2v11.2h-1v-13.1c-0.3-0.3-0.6-0.8-0.8-1.1H52.1z M22.6,201.6c1.1,3.2,2.2,6.6,3.3,9.8c0.4,0.1,1,0.2,1.3,0.2
	c0.6,0,1.1,0.1,2.1-0.7c-0.3,1.2-2,1.7-2.9,1.8c-0.1,0.1-0.1,0.2-0.1,0.2l0.9,2.9h-2.9c-0.4-1.1-0.7-2.2-1.2-3.3
	c-0.9-0.2-2.7-0.4-3-0.4c-2.7,0-1.8,0.5-3,3.7h-1.2l4-13.1c-0.2-0.4-0.3-0.8-0.4-1.1H22.6z M44.9,211.3c0.2,0.5,0.9,0.3,1.4,0.3
	c0.8,0,1.2,0.1,2.2-0.8c-0.4,1.2-1.9,1.9-3,1.9c0,0,0,0.1-0.1,0.2l1,2.9h-3c-0.3-1.1-0.4-2.6-1.2-3.3c-0.7-0.7-2.7-0.4-2.9-0.4
	c-2.7,0-1.8,0.3-3,3.7h-1.2l3.9-13.1c-0.1-0.4-0.2-0.8-0.4-1.1c2.6,0,2.9,0,2.9-0.1C42.8,204.7,43.6,208.2,44.9,211.3z M8.1,200.6
	c4.6,0.8,7.3,4.3,7.3,8c0,4.8-4.4,8.1-8,8.1H4v-16.1H8.1z M34.6,199.3c-2.2,0.8-3.5,2.5-3.5,4.4c0,2.3,2.6,6.7,2.6,9.4
	c0,0.2-0.1,0.7-0.2,1c-0.1,0.6-0.5,1.7-1,2.4c-0.2,0.2-2.1,2.2-2.6,2.2h-0.8c1.2-0.8,2.1-2.3,2.3-3.4v-1.8c-0.7-2.8-2.5-5.7-2.5-8.5
	c0-2.9,2.2-5.8,5.8-6.3V199.3z"/>
<path fill-rule="evenodd" clip-rule="evenodd" fill="#333333" d="M60.8,9.1v0.3c-0.4,0.6-1.1,1-1.6,1.2c0.1-0.4,0.8-1.3,1.3-1.5
	H60.8z M64.6,7.3l-0.7,1.3h0.9c0,0.6-0.8,0.3-1,0.4c-0.5,0.9-1.6,2.6-1.6,2.8v0.3c0.1,0.1,0,0.1,0.2,0.1c0.3,0,1.3-1.2,1.4-1.4h0.4
	c-0.5,0.9-1.8,2.1-2.7,2.1c-0.4,0-0.7-0.3-0.7-0.6c0-0.2,0.1-0.3,0.2-0.5l-0.1-0.1c-0.5,0.5-1.6,1.2-2.3,1.2c-0.6,0-1-0.4-1.1-1.2
	c-0.5,0.3-1.5,1.2-2,1.2c-0.4,0-0.5-0.4-0.5-0.6c0-0.6,1.8-3.5,1.9-3.7h1.1L56.1,12c0.1,0.1,0.1,0.2,0.2,0.2c0.7,0,1.8-2,1.8-2.1
	c0.3-0.5,0.7-0.9,1.2-1.2c0.4-0.3,0.6-0.3,1-0.3c0.6,0,0.8,0.2,0.8,0.6c0,0.7-1,1.4-1.5,1.6c-0.3,0.1-0.7,0.1-0.9,0.3
	c-0.2,0.1-0.3,0.5-0.3,0.6c0,0.5,0.5,0.5,0.6,0.5c1.2,0,3.2-2.4,3.3-3.2h-0.7c0.1-0.6,0.6-0.2,0.9-0.4c0.4-0.3,0.6-0.8,0.8-1.3H64.6
	z M58.7,7.3c0,0.5-0.7,0.7-0.8,0.7c-0.4,0-0.5-0.3-0.5-0.4c0-0.3,0.4-0.7,0.8-0.7C58.5,6.8,58.7,7,58.7,7.3z M55.6,8.9
	c0,0.5-0.3,1.1-0.4,1.4c-0.9,1.9-3.7,2.7-5.2,2.7c-0.1,0-1.5-0.2-2.2-0.3C50.2,11,50.3,8.4,53,7c-0.3,0.5-0.5,1-0.7,1.6
	c-0.4,1.2-1.8,3.3-3.3,4l-0.1,0.1c0.3,0,0.7,0.1,0.9,0.1c2.2,0,4.6-1.8,4.6-4.2c0-2.3-2.3-2.5-3.6-2.5c-0.8,0-3.9,0.4-3.9,2.2
	c0,0.5,0.4,0.8,0.9,0.8c0.6,0,1.2-0.7,1.2-0.7c0.1,0,0.3,0.1,0.5,0.1c0.2,0,0.9-0.2,1.3-0.4c-0.7,1.2-2,1.8-3,1.8
	c-0.9,0-1.7-0.5-1.7-1.4c0-2.3,3.9-2.8,4.9-2.8C52.7,5.6,55.6,6.5,55.6,8.9z"/>
</svg>
