<?xml version="1.0" encoding="utf-8"?>
<!-- Generator: Adobe Illustrator 18.0.0, SVG Export Plug-In . SVG Version: 6.00 Build 0)  -->
<!DOCTYPE svg PUBLIC "-//W3C//DTD SVG 1.1//EN" "http://www.w3.org/Graphics/SVG/1.1/DTD/svg11.dtd">
<svg version="1.1" id="Layer_1" xmlns="http://www.w3.org/2000/svg" xmlns:xlink="http://www.w3.org/1999/xlink" x="0px" y="0px"
	 width="70.1px" height="21.9px" viewBox="-0.2 9.1 70.1 21.9" enable-background="new -0.2 9.1 70.1 21.9" xml:space="preserve">
<g>
	<path fill="#E6172D" d="M29.4,30.3c-3.1-2.7-5.2-3.3-8-3.3c-4.6,0-10.7,2.5-14,2.5C5,29.5,3,28.4,3,25.4c0-1.4,0.4-2.8,0.8-4.2
		c1-2.8,4.3-7.8,8.3-10.5c0.5-0.4,1.5-0.9,2.2-0.9c0.4,0,0.9,0.1,0.9,0.7c0,0.1,0.1,0.3-0.1,0.4c-0.2,0.1-0.5,0.1-0.7,0.2
		c-0.6,0.4-0.9,1-0.9,1.5c0,0.4,0.1,0.7,0.6,0.7c1.2,0,1.9-2,1.9-2.6c0-0.9-0.6-1.7-2-1.6c-1.6,0-3.3,0.8-5,1.8
		c-0.5,0.3-0.9,0.7-1.4,1C2.9,15.4-0.2,21-0.2,25.2c0,3.2,1.9,5.5,5.5,5.5c3,0,7.9-2,11.5-2c1.8,0,3.8,0.2,5.2,2.3
		c0.9-1.5,2-1.5,3.1-1.5c1.6,0,3.4,0.5,5,1.5C29.9,30.8,29.6,30.5,29.4,30.3z M56,10.3c-1.2-0.8-2.6-1.2-3.8-1.2
		c-0.8,0-1.7,0.2-2.6,0.5c0,0-0.1,0.1-0.2,0.1c-0.1,0-0.4-0.3-0.5-0.4c-0.3-0.2-0.8-0.2-1.4-0.1c-0.6,0-1.4,0.2-2.1,0.4
		c-5.4,1.9-11,9-12.6,13.5c-0.5,1.3-0.8,2.3-0.8,3.6c0,1.5,0.7,4,3.3,4c0.7,0,1.2-0.1,1.9-0.4c3.2-1.4,6.2-5.9,6.2-8.6
		c0-0.7-0.2-1.8-1.4-1.8c-2.8,0-5.1,3.6-5.3,6.6c0.8-0.9,1.9-1.7,2.8-2.1c0.1-0.5,0.3-1.1,0.5-1.5c0.4-0.7,1.1-2,2.1-2
		c0.6,0,0.7,0.5,0.7,0.9c0,1.9-1.9,5-4,6.5c-0.7,0.5-1.3,0.8-1.9,0.8c-1.5,0-1.9-1.3-1.9-2.3s0.5-2.7,0.8-3.5
		c1.1-3,4.5-8.2,8.6-11.4c0.9-0.7,2.6-1.8,3.6-1.8c0,0,0.5,0.1,0.6,0.2L48,10.6c-1.8,1.1-3.6,3.2-4.2,4.8c-0.1,0.3-0.3,0.8-0.3,1.2
		c0,0.6,0.3,1.3,1.2,1.3c1.7,0,3.9-2.9,4.6-4.8c0.1-0.4,0.2-0.8,0.3-1.1l0.1-0.5v-1c0.2-0.1,0.5-0.1,0.7-0.1c2.3,0,4.9,2.3,7.1,3.4
		l1.7-1.7C58.1,11.5,57,10.9,56,10.3z M49.2,11.2c-0.1,0.7-0.3,1.4-0.6,2c-0.2,0.5-0.6,1.1-0.9,1.7c-0.3,0.4-2,2.2-2.7,2.2
		c-0.5,0-0.6-0.3-0.6-0.7c0-1.5,2.7-4.7,4.1-5.4c0.2-0.1,0.5-0.2,0.7-0.3V11.2z M62.3,12.8c0,0-0.5,0-0.7,0L60,14.6
		c0.8,0.2,0.7,0.2,1.4,0.2c3,0,6.6-2,8.5-5.7C67.6,11.4,64.8,12.8,62.3,12.8z M62.2,28.5c-0.2,0.1-0.5,0.3-0.6,0.3
		c-0.1,0-0.3-0.2-0.3-0.3c0-0.4,1.4-2.7,1.5-2.8c0.3-0.5,0.6-1.1,0.9-1.6l2.3-4h-2.2c-0.2,0.2-0.3,0.4-0.4,0.5
		c-0.5-0.7-0.8-0.8-1.3-0.8c-0.8,0-1.4,0.3-2.2,1c-2.6,2.1-3.8,4.6-5.5,6.9c-0.2,0.3-0.9,1.1-1.3,1.1c-0.5,0-0.5-0.5-0.5-0.8
		c0-0.8,0.8-2.8,1-3.3c0.2-0.2,0.2-0.6,0.4-0.8c0.4-0.4,1-0.7,1.5-1.1c2.1-1.5,4.6-4,6.2-6c0.4-0.5,0.8-1.1,1.2-1.6
		c-0.2,0.1-0.5,0.1-0.7,0.1c-0.2,0.2-0.4,0.4-0.5,0.6c-1.4,1.8-3.5,3.8-5.4,5.5c-0.5,0.5-1.1,0.9-1.6,1.2c0-0.1,0-0.1,0-0.1
		c1.4-2.8,3.3-5.7,5.4-8.4c0.1-0.3,3.3-4,4.4-4c0.1,0,0.2,0.1,0.2,0.3c0,0.5-0.6,1.4-0.8,1.9H64c0.2-0.1,0.5-0.1,0.6-0.2
		c0.2-0.2,0.2-0.5,0.3-0.6c0.2-0.5,0.3-0.8,0.3-1.3s-0.1-0.9-0.4-0.8c-2,0-5.4,3.5-6.8,5.1c-2.1,2.4-3.7,4.9-5,7.3
		c-0.4,0.8-0.7,1.6-1.2,2.3c-0.2,0.2-0.8,0.3-1.1,0.3c-0.1,0-0.1-0.1-0.2-0.1c0.4-0.9,0.9-2.1,0.9-3c0-0.8-0.4-1.5-1.4-1.5
		c-3,0-7.2,5.7-7.4,8.8v0.7c0,0.3,0.3,0.8,0.5,1c0.2,0.3,0.6,0.4,0.9,0.4c1.2,0,2.7-1.2,3.7-2.3c0.9-1,1.5-2.1,2.2-3.1
		c0-0.1,0-0.2,0.2-0.2c0.3,0,0.7,0,1.1-0.1v0.1c-0.4,1.2-0.8,2.4-1,3.6v0.8c0,0.6,0.6,1.3,1.3,1.3c1.1,0,2.3-1.2,3.2-2.2v0.7
		c0,0.7,0.3,1.5,1.3,1.5c0.8,0,2-1,2.8-1.8v0.6c0,0.6,0.2,1.2,1,1.2c2,0,5.4-4.6,5.9-5.5H65C64.2,26.3,63.4,27.6,62.2,28.5z
		 M45.6,28.5c-0.6,0-0.7-0.5-0.7-0.8c0-1.2,1.4-3.6,2.3-4.5c0.3,0.6,1.2,1.3,1.9,1.6C48.9,25.2,47,28.5,45.6,28.5z M49.5,24.1
		c-0.5,0-1.4-0.9-1.4-1.3v-0.6c0.1-0.9,1-1.5,1.7-1.5c0.5-0.1,0.6,0.6,0.6,0.8C50.4,22.3,49.9,23.4,49.5,24.1z M57.6,28.4
		c-0.4,0-0.4-0.2-0.4-0.4c0-1.7,3.9-7.2,5.3-7.2c0.2,0,0.4,0.1,0.4,0.3c0,0.1-0.6,1-0.8,1.4c-0.4,0.6-0.8,1.4-1.2,2
		C60.5,25.1,58.8,28.4,57.6,28.4z M29,22.7c-0.1,0-0.7,0.4-0.8,0.4c-0.1,0-0.2-0.1-0.2-0.3c0-0.1,0-0.3-0.1-0.3
		c1.5-2.6,3.1-5.2,4.7-7.8h-2.2c-0.1,0.2-0.2,0.3-0.3,0.4c-0.3-0.5-0.8-0.7-1.2-0.7c-0.6,0-1.4,0.4-2,0.8c-2.1,1.6-3.4,3.6-4.8,5.4
		c-0.9,1.1-2.6,3.1-3.9,3.1c-0.8,0-0.9-0.7-0.9-1.2c0-0.7,0.4-1.5,0.8-2.3c0.3-0.6,0.6-1.2,1-1.7c0.6-0.9,2.4-3.1,3.5-3.1
		c0.2,0,0.6,0.1,0.6,0.5c0,0.1,0,0.2-0.1,0.3c-0.1,0-0.4,0-0.5,0.1c-0.6,0.2-1,0.9-1,1.4c0,0.3,0.1,0.6,0.6,0.6c1.1,0,1.8-2,1.8-2.5
		c0-0.9-0.7-1.4-1.6-1.4c-1.1,0-2,0.6-3,1.5c-1,0.8-1.9,1.9-2.8,2.3c-0.2,0.1-0.4,0.2-0.7,0.3h-0.2c0.3-0.8,0.7-1.8,0.7-2.6
		c0-0.7-0.4-1.5-1.7-1.4c-2.9,0-7.5,5.7-7.5,9c0,0.7,0.2,1.9,1.5,1.9c0.5,0,0.9-0.2,1.5-0.5c2.1-1.2,3.8-3.6,4.7-5.3
		c0.1-0.1,0.1-0.2,0.2-0.2c0.3-0.1,0.9-0.2,1-0.2c0.1,0,0.1,0,0.1,0c-0.5,0.9-1.4,2.7-1.4,3.7s0.3,2.5,2,2.5c1.7,0,2.9-1.2,4.7-2.8
		c0,0.5-0.2,1.4-0.2,1.5c0,0.7,0.3,1.3,1.3,1.3c0.9,0,1.9-0.8,2.8-1.7c0,0-0.1,0.2,0,0.8c0.1,0.6,0.5,0.8,1,0.8
		c1.9,0,5.2-4.3,5.9-5.4h-0.7C30.9,20.8,30,21.9,29,22.7z M10.7,23.1c-0.5,0-0.6-0.5-0.6-0.8c0-1.3,1.5-3.4,2.3-4.6
		c0.4,0.8,1.3,1.3,2,1.5C14.2,19.6,12.2,23.1,10.7,23.1z M14.9,18.4c-0.9,0-1.7-0.6-1.7-1.4c0-0.7,0.8-1.8,1.7-1.8
		c0.6,0.1,0.7,0.7,0.7,1C15.6,16.9,15.1,17.8,14.9,18.4z M24.5,23.3c-0.4,0-0.4-0.2-0.4-0.4c0-1.7,3.4-5.9,4.4-6.9
		c0.2-0.2,0.7-0.4,1-0.4c0.2-0.2,0.4-0.1,0.4,0.1c0,0.1-0.5,0.9-0.8,1.4c-0.6,0.9-1.2,2-1.8,3C27.2,20.2,25.5,23.3,24.5,23.3z
		 M34.4,14.7l-1.1,1.8h2l1.2-1.8H34.4z"/>
</g>
</svg>
