<?xml version="1.0" encoding="utf-8"?>
<!-- Generator: Adobe Illustrator 18.0.0, SVG Export Plug-In . SVG Version: 6.00 Build 0)  -->
<!DOCTYPE svg PUBLIC "-//W3C//DTD SVG 1.1//EN" "http://www.w3.org/Graphics/SVG/1.1/DTD/svg11.dtd">
<svg version="1.1" id="Layer_1" xmlns="http://www.w3.org/2000/svg" xmlns:xlink="http://www.w3.org/1999/xlink" x="0px" y="0px"
	 width="70px" height="40px" viewBox="0 0 70 40" enable-background="new 0 0 70 40" xml:space="preserve">
<path fill-rule="evenodd" clip-rule="evenodd" fill="#FFFFFF" d="M22.7,22.1c-1.3-0.2-2.6-0.2-3.9,0.5l1.9-6.3L22.7,22.1z M41.9,22
	c-0.5,0.1-1.2,0-1.5,0c-0.7,0-2,0.3-2.5,0.6l2-6.4L41.9,22z M7.9,12.9c3.6,0.9,4.5,4.7,4.5,6.9c0,1.1-0.4,2.5-0.8,3.7
	c-0.4,1.1-2.5,3.3-3.9,3.3H7v-14H7.9z M66,12.9V27h-2.7V12.9H66z M52.1,12.9l6.1,8.8v-8.8h1.2v15.3L51,15.9h-0.2V27h-1V14
	c-0.3-0.3-0.6-0.8-0.8-1.1H52.1z M22.6,12.9c1.1,3.2,2.2,6.6,3.3,9.8c0.4,0.1,1,0.2,1.3,0.2c0.6,0,1.1,0.1,2.1-0.7
	c-0.3,1.2-2,1.7-2.9,1.8c-0.1,0.1-0.1,0.2-0.1,0.2l0.9,2.9h-2.9c-0.4-1-0.7-2.2-1.2-3.3c-0.9-0.2-2.7-0.4-3-0.4
	c-2.7,0-1.8,0.5-3,3.7h-1.2l4-13c-0.2-0.4-0.3-0.8-0.4-1.1H22.6z M44.9,22.6c0.2,0.5,0.9,0.3,1.4,0.3c0.8,0,1.2,0.1,2.2-0.8
	c-0.4,1.2-1.9,1.9-3,1.9c0,0,0,0.1-0.1,0.2l1,2.9h-3c-0.3-1-0.4-2.6-1.2-3.3c-0.7-0.7-2.7-0.4-2.9-0.4c-2.7,0-1.8,0.3-3,3.7h-1.2
	l3.9-13c-0.1-0.4-0.2-0.8-0.4-1.1c2.6,0,2.9,0,2.9-0.1C42.8,16,43.6,19.4,44.9,22.6z M8.1,11.9c4.6,0.8,7.3,4.3,7.3,8
	c0,4.8-4.4,8.1-8,8.1H4V11.9H8.1z M34.6,10.6c-2.2,0.8-3.5,2.5-3.5,4.4c0,2.3,2.6,6.7,2.6,9.4c0,0.2-0.1,0.7-0.2,1.1
	c-0.1,0.6-0.5,1.7-1,2.4C32.3,28,30.4,30,29.9,30h-0.8c1.2-0.8,2.1-2.3,2.3-3.4v-1.8c-0.7-2.8-2.5-5.7-2.5-8.5
	c0-2.9,2.2-5.8,5.8-6.3V10.6z"/>
</svg>
