<?xml version="1.0" encoding="utf-8"?>
<!-- Generator: Adobe Illustrator 18.0.0, SVG Export Plug-In . SVG Version: 6.00 Build 0)  -->
<!DOCTYPE svg PUBLIC "-//W3C//DTD SVG 1.1//EN" "http://www.w3.org/Graphics/SVG/1.1/DTD/svg11.dtd">
<svg version="1.1" id="Layer_1" xmlns="http://www.w3.org/2000/svg" xmlns:xlink="http://www.w3.org/1999/xlink" x="0px" y="0px"
	 width="69px" height="296px" viewBox="0 0 69 296" enable-background="new 0 0 69 296" xml:space="preserve">
<g>
	<path fill-rule="evenodd" clip-rule="evenodd" fill="#FFFFFF" d="M67.4,126.1c0,0.3-0.2,1.8-1,1.8c-0.9,0-0.9-0.7-0.9-1.3
		c0-0.3,0-1.9,1-1.9C67.3,124.7,67.4,126,67.4,126.1z M54,122.7c0,0.6-2.1,4.9-3.1,4.9c-0.3,0-0.6-1.2-0.6-1.3c0-0.4,0.1-0.7,0.1-1
		c0.3-1.5,0.7-3.3,1.8-4.7C52.3,121.7,54,122.4,54,122.7z M54.8,118c0,0.4-0.3,2.2-0.4,3.3c-0.7-0.5-1.3-1.6-1.3-2.4
		c0-1,0.1-1.2,1.3-2.1C54.7,117.1,54.8,118,54.8,118z M61.2,125.8v-1c0.3-0.4,0.3-0.9,0.3-1.3c0.6-2.1,0.9-4.9,2.7-6.8
		C63.3,119.6,62.8,122.9,61.2,125.8z M11,115.2c-0.6,1.3-0.7,3.1-2.1,4.7c0-0.3-0.1-0.4-0.1-0.9c0-0.6,0.9-4.6,1-4.7
		C10.1,114.6,10.5,115,11,115.2z M11.9,110.9c0,0.4-0.3,1.9-0.6,2.8c-0.9-0.3-0.7-0.7-0.7-1.3c0-0.6,0.2-1.9,1.2-2.2
		C11.9,110.4,11.9,110.6,11.9,110.9z M28.9,107.9c-2.1,4-4,9.8-6.5,12.1h-0.4v-1.2c0.9-3.7,3-7.6,6.4-11H28.9z M38.6,106.2
		c-0.4,1.2-1,2.2-1.5,3.2l-3.2-0.1c0.6-1,1-2.1,1.6-3.1H38.6z M29.6,106.6c0.3,0,0.3-0.3,0.6-0.4h3c0,0,0.1,0.1,0.1,0.3l-6.2,13.3
		c0.1,0.2,0,0.3,0.4,0.3c0.9,0,4-4.9,4.3-5.3H33v0.3c-0.6,0.9-4.7,8.7-8,8.7c-1.3,0-1.3-0.9-1.6-2.2c-1.2,0.9-2.1,2.2-3.2,2.2
		c-2.4,0-1.6-2.8-1.9-3.7c-1.5,1.9-2.5,3.4-4.3,3.4c-1.9,0-2.2-2.4-2.2-3.7c0-0.4,0.4-3.1,0.7-4.7c-0.3,0-0.6,0.3-0.7,0.7
		c-0.4,1.3-2.2,7.4-3.7,7.4c-0.6,0-1-1.5-1-1.6v-3.8c-0.1-1.2,2.1-9.5,4.4-9.5c1.3,0,1.5,1.9,1.5,2.2c0,0.4-0.3,2.1-0.3,3.3
		c2.1-2.4,3.5-7,6.6-7c1.3,0,1.8,1.2,1.8,2.2c0,0.7-0.9,4.2-2.1,4.2c-1,0-0.9-1.2-0.9-1.3c0-1.8,1.9-2.4,1.9-2.8s-0.1-0.4-0.1-0.4
		c-0.1-0.2,0-0.2-0.4-0.2c-1.6,0-3.7,4.6-4.1,5.9c-0.2,0.7-0.6,1.3-0.7,2.2c-0.1,0.6-0.3,2.1-0.3,2.5c0,0.3-0.3,2.1,0.9,2.1
		c1.9,0,5-6.7,5.6-7.7c0.9-1.8,2.1-3.9,3.5-5.5c0.4-0.6,1.6-1.9,3-2.1c0.1,0,0.1-0.2,0.4-0.2C28.1,105.7,29.1,106.6,29.6,106.6z
		 M52.5,106.4c-0.2,0.3-1.5,4.9-3,4.9c-0.9,0-0.6-0.9-0.6-1.2c0-1.9,1.2-4.6,3.6-6.2V106.4z M12.3,103.5c0,0.5-0.5,4-1.6,4
		c-0.4,0-0.6-0.9-0.6-1c0-1.3,0.7-1.6,1.5-3c-0.1-0.2-0.1-0.4-0.4-0.4c-0.4,0-1,0.7-1.5,1.3c-1.2,1.6-1.9,3.7-2.4,5.6
		c-0.1,0.4-0.3,1.3-0.4,1.9c-0.6,3-1,6.2-1,9.2c0,2.1-0.3,6.7,3.1,6.7c1.2,0,5.9-1.8,9-1.8c5,0,8.7,2.2,13.4,7.2h-0.4
		c-2.2-1.8-5-2.8-7.4-2.8c-1,0-2.8,0.3-3.5,2.1c-1.5-3.1-4.6-4.1-7.1-4.1c-0.3,0-4.7,0.7-5,0.7c-2.4,0-3.6-5-3.6-6.2v-5.3
		c0.3-1.8,0.6-3.7,0.9-5.5c0.3-1.2,2.7-10.5,5.9-10.5C12.3,101.6,12.3,102.8,12.3,103.5z M50.6,100.5c1.8,0.3,2.1,1.6,2.5,1.6
		c0.3,0,0.6-0.3,1-0.3c0.7,0,5.3,1.8,5.3,3.3c0,0.3-0.6,1.6-0.7,2.4h-0.4c-1.2-1.3-2.4-3.5-4.1-4.2h-0.6v3.4
		c-0.4,0.9-2.2,6.1-4.1,6.1c-1.9,0-1.6-2.4-1.6-2.8c0-2.2,1.3-5.9,4.3-7.6c-0.3-0.2-0.5-0.3-0.9-0.3c-0.9,0-2.7,1.2-3.1,1.6
		c-0.6,0.7-1.6,1.6-2.1,2.2c-4.1,4.7-8.1,13.8-8.1,19.1c0,0.4,0.1,1.6,0.1,2.1c0,0.3,0.6,1.3,1.3,1.8c0.2,0.1,0.7,0.4,1,0.4
		c0.6,0,2.1-1,2.2-1.2c2.5-2.5,4.7-7,4.7-9.9c0-0.5,0-1.8-0.9-1.8c-1.9,0-2.7,4.6-3,5.5c-1.2,0.9-2.5,2.5-3.4,3.6
		c0-0.2-0.2,0-0.2-0.4c0-2.1,1.6-10.4,6.1-10.4c1.9,0,2.4,2.4,2.4,3.3c0,5.2-4.9,14.4-10.2,14.4c-4.1,0-5-5.2-5-7.4
		c0-1.5,0.4-3.3,0.7-4.7c2.1-6.7,6.6-16.1,14.3-19.4c0.5-0.2,1.3-0.5,1.8-0.5C50.3,100.4,50.4,100.5,50.6,100.5z M42.9,0.3
		c3,0.6,7.1-0.2,7.1,4c0,2.7-1.6,1.8-1.6,4.1c0,0.4,2.5,6.4,2.5,8c0,0.9,0,1.5-1.5,3c0,0.1-0.1,0.4-0.1,0.6l0.1,12.6
		c0.3,1.8,0.3,3.7,0.6,5.5c0.4,2.5,1,5.2,1.6,7.7c1.5,6.1,3.6,12.3,5.3,18.4c1.8,6.1,8,21.3,8,29.3c0,0.5,0.2,2.5-0.9,2.8
		c0.4,1,1.6,3.6,1.6,4.7c0,0.4-1.2,2.5-1.8,3.7c-0.3,0.6-1.5,0.9-1.8,1c-0.6,0.2-0.6,1.2-0.7,1.5c-0.1,0.4-0.1,1-0.4,1.6
		c0.3,0.4,1,0.2,1.6,0.2c-1.2,2.7-2.1,6.1-3.8,9.2c1.2-5,1.8-10.4,4.1-15.4v2.4l0.3,0.3c0.7-0.4,0.7-1.2,0.7-1.6
		c0-0.6-0.1-2.8-1.2-2.8c-1.2,0-2.2,2.8-2.2,3c-1.3,3-2.2,5.9-2.8,8.9c-0.2,0.9-0.6,1.6-0.7,2.7c-0.4,1.8-0.7,3.8-1.3,5.8
		c0-0.5,0-0.9,0.3-1.3v-3.7c-0.7-0.6-1.3-1.3-1.9-1.3c-3.7,0-6.8,10.7-7,11.6c0,0.1-0.1,0.1-0.1,0.6v2.7c1,1.8,0.6,1.8,2.1,1.8
		c3.6,0,5.6-7.2,6.2-8.7c0.1,0,0.3-0.2,0.4-0.2c-0.3,1.8-0.6,4.2-0.6,4.6c0,0.7,0.2,3.3,1.5,3.3c1,0,2.1-2.4,2.2-3
		c0.2,0.3,0,2.1,1.3,2.1c0.6,0,1.6-1.8,1.8-1.9c0,0.3,0.1,1.5,1,1.5c1.5,0,3.2-5.8,3.7-6.7v-1c-0.1,0,0-0.2-0.4-0.2
		c-0.6,0-1.6,3.4-2.1,4.3l2.2-9.8v-0.9h-1.3l-0.3,0.3c-0.3-0.3-0.6-0.6-0.9-0.6c-1.9,0-3.4,4.9-3.6,5.3c-0.7,2.1-1.3,4.6-2.5,6.9
		c0-0.1-0.2-0.3-0.2-0.7c0-0.3,0.3-3.1,0.6-4.6c0-0.9,1.3-2.7,1.6-3.1c0.6-0.9,3.7-7.4,3.7-9.3c0-0.5-0.3-0.3-0.6-0.3
		c2.4-1.8,2.7-4.7,3.1-6.7l1.6,13l0.1,16.4c-0.1,1.5-0.7,4-0.7,4.3c0,0.4,0.3,0.4,0.3,0.4c0.6,0.6,0.6,1.5,0.6,2.1
		c0,1.5-1.6,10.4-1.6,11c-0.3,2.5-3.6,26.6-3.6,30.2c0,0.4-0.4,8.4-0.4,8.9c0,8.4,0.9,15.5,4.1,24.7c0.3,0.6,0.4,1.5,0.6,2.4
		c0.4,1.6,0.7,3.4,0.9,5.3c0.2,2.5,0.2,3,0.2,3.4c0,12.1-5.2,13-17.4,14.7c-1.9,0.3-4,0.4-6.1,0.7c-3.1,0.2-4.4,0.3-4.9,0.3h-8.6
		c-0.6-0.1-1.5-0.3-1.9-0.3h-3c-1.9-0.3-4-0.4-5.8-0.7c-4.3-0.6-8.9-0.9-13.1-3.1c-3.1-1.5-4.3-7.2-4.3-10.1v-3.1l0.4-4.4
		c0.7-5.9,3.8-12.1,4.4-18.1c0.1-1.3,0.3-2.8,0.6-4.1v-12.4c-0.3-4.3-0.4-7.4-0.4-7.8c0-0.3-0.9-7.7-1.3-11.4
		c-1-8.1-3.5-23.8-3.5-24.1v-3.1c0.3-0.4,0.9-0.9,0.9-1.2c0-0.4-0.6-1.3-0.6-1.9c-0.3-1.8-0.1-3.6-0.3-5.3l0.3-11.6
		c0.1-0.3,0.1-0.7,0.3-1.2v-3l1-9c0.6-2.5,0.3-5,2.2-7.6c-1-1-1-1.8-1-2.8c0-0.4,0.3-3.6,0.6-5.3c2.2-8.7,5.5-17.5,8-26.2
		c1.9-6.4,4-13.5,5.5-19.7c0.7-2.1,0.7-4.1,1.2-6.2c0.1-1.5,0.3-3.1,0.4-4.7L21.8,20c-0.7-1.6-1.6-2.1-1.6-3.7
		c0-2.1,2.5-6.8,2.5-7.9c0-2.1-1.6-2.1-1.6-4c0-4,3.4-3.7,6.9-4.1L35.3,0L42.9,0.3z"/>
	<path fill-rule="evenodd" clip-rule="evenodd" fill="#444444" d="M0,280v16h69v-17C69,279,33.5,265.5,0,280z"/>
	<rect x="6" y="282" fill-rule="evenodd" clip-rule="evenodd" fill="#DDDDDD" width="58" height="10"/>
</g>
</svg>
